<svg width="332" height="332" viewBox="0 0 332 332" fill="none" xmlns="http://www.w3.org/2000/svg">
<g clip-path="url(#clip0_10_4)">
<path d="M332 20.75C332 94.4125 277.142 155.301 206.073 164.703C201.47 130.077 186.231 98.8219 163.73 74.3758C188.566 30.0227 236.031 0 290.5 0H311.25C322.727 0 332 9.27266 332 20.75ZM0 62.25C0 50.7727 9.27266 41.5 20.75 41.5H41.5C121.712 41.5 186.75 106.538 186.75 186.75V207.5V311.25C186.75 322.727 177.477 332 166 332C154.523 332 145.25 322.727 145.25 311.25V207.5C65.0383 207.5 0 142.462 0 62.25Z" fill="#E4DAD1"/>
</g>
<defs>
<clipPath id="clip0_10_4">
<rect width="332" height="332" fill="white"/>
</clipPath>
</defs>
</svg>
