<svg width="242" height="256" viewBox="0 0 242 256" fill="none" xmlns="http://www.w3.org/2000/svg">
<path d="M80.9431 198.7C80.9431 199.7 79.821 200.5 78.406 200.5C76.796 200.65 75.6738 199.85 75.6738 198.7C75.6738 197.7 76.796 196.9 78.2109 196.9C79.6746 196.75 80.9431 197.55 80.9431 198.7ZM65.7694 196.45C65.4278 197.45 66.4036 198.6 67.8673 198.9C69.1359 199.4 70.5996 198.9 70.8923 197.9C71.1851 196.9 70.2581 195.75 68.7944 195.3C67.5258 194.95 66.1109 195.45 65.7694 196.45ZM87.3347 195.6C85.9198 195.95 84.944 196.9 85.0903 198.05C85.2367 199.05 86.5052 199.7 87.969 199.35C89.3839 199 90.3597 198.05 90.2133 197.05C90.0669 196.1 88.7496 195.45 87.3347 195.6ZM119.439 4C51.7665 4 0 56.65 0 126C0 181.45 34.0556 228.9 82.6996 245.6C88.9448 246.75 91.1403 242.8 91.1403 239.55C91.1403 236.45 90.994 219.35 90.994 208.85C90.994 208.85 56.8407 216.35 49.6686 193.95C49.6686 193.95 44.1065 179.4 36.1048 175.65C36.1048 175.65 24.9319 167.8 36.8855 167.95C36.8855 167.95 49.0343 168.95 55.7185 180.85C66.4036 200.15 84.3097 194.6 91.2867 191.3C92.4089 183.3 95.5802 177.75 99.0932 174.45C71.8194 171.35 44.3016 167.3 44.3016 119.2C44.3016 105.45 48.0097 98.55 55.8161 89.75C54.5476 86.5 50.4004 73.1 57.0847 55.8C67.2819 52.55 90.75 69.3 90.75 69.3C100.508 66.5 110.998 65.05 121.39 65.05C131.783 65.05 142.273 66.5 152.031 69.3C152.031 69.3 175.499 52.5 185.696 55.8C192.38 73.15 188.233 86.5 186.965 89.75C194.771 98.6 199.552 105.5 199.552 119.2C199.552 167.45 170.815 171.3 143.541 174.45C148.03 178.4 151.835 185.9 151.835 197.65C151.835 214.5 151.689 235.35 151.689 239.45C151.689 242.7 153.933 246.65 160.13 245.5C208.92 228.9 242 181.45 242 126C242 56.65 187.111 4 119.439 4ZM47.4242 176.45C46.7899 176.95 46.9363 178.1 47.7657 179.05C48.5464 179.85 49.6685 180.2 50.3028 179.55C50.9371 179.05 50.7907 177.9 49.9613 176.95C49.1806 176.15 48.0585 175.8 47.4242 176.45ZM42.1548 172.4C41.8133 173.05 42.3012 173.85 43.277 174.35C44.0577 174.85 45.0335 174.7 45.375 174C45.7165 173.35 45.2286 172.55 44.2528 172.05C43.277 171.75 42.4964 171.9 42.1548 172.4ZM57.9629 190.2C57.1823 190.85 57.475 192.35 58.5972 193.3C59.7194 194.45 61.1343 194.6 61.7685 193.8C62.4028 193.15 62.1101 191.65 61.1343 190.7C60.0609 189.55 58.5972 189.4 57.9629 190.2ZM52.4008 182.85C51.6202 183.35 51.6202 184.65 52.4008 185.8C53.1815 186.95 54.4988 187.45 55.1331 186.95C55.9137 186.3 55.9137 185 55.1331 183.85C54.45 182.7 53.1815 182.2 52.4008 182.85Z" fill="#E4DAD1"/>
</svg>
