<svg width="377" height="332" viewBox="0 0 377 332" fill="none" xmlns="http://www.w3.org/2000/svg">
<g clip-path="url(#clip0_3_244)">
<path d="M376.869 165.676C376.869 177.348 367.051 186.491 355.925 186.491H334.98L335.438 290.37C335.438 292.121 335.307 293.872 335.111 295.623V306.062C335.111 320.393 323.395 332 308.931 332H298.458C297.738 332 297.018 332 296.298 331.935C295.382 332 294.466 332 293.549 332H272.278H256.569C242.105 332 230.389 320.393 230.389 306.062V290.5V249C230.389 237.523 221.029 228.25 209.444 228.25H167.556C155.971 228.25 146.611 237.523 146.611 249V290.5V306.062C146.611 320.393 134.895 332 120.431 332H104.722H83.8432C82.8615 332 81.8797 331.935 80.8979 331.87C80.1125 331.935 79.3271 332 78.5417 332H68.0694C53.6047 332 41.8889 320.393 41.8889 306.062V233.438C41.8889 232.854 41.8889 232.205 41.9543 231.622V186.491H20.9444C9.16319 186.491 0 177.413 0 165.676C0 159.84 1.96354 154.652 6.54514 150.113L174.363 5.1875C178.944 0.648438 184.18 0 188.762 0C193.343 0 198.58 1.29688 202.507 4.53906L369.669 150.113C374.906 154.652 377.524 159.84 376.869 165.676Z" fill="#E4DAD1"/>
</g>
<defs>
<clipPath id="clip0_3_244">
<rect width="377" height="332" fill="white"/>
</clipPath>
</defs>
</svg>
